# xmcd
#
# Track frame offsets: 
#        150
#        23400
#        49385
#        69695
#        99487
#        118742
#        144962
#        172002
#        201475
#        228447
#        250172
#        280385
#
# Disc length: 4203 seconds
#
# Revision: 1
# Processed by: cddbd v1.5.2PL0 Copyright (c) Steve Scherf et al.
# Submitted via: ExactAudioCopy v1.0b3
#
DISCID=b010690c
DTITLE=Bill Evans - Soul Insider
DYEAR=2000
DGENRE=Jazz
TTITLE0=Vans Joint
TTITLE1=Cool Eddie
TTITLE2=Lose My Number
TTITLE3=Cheeks
TTITLE4=You Sure Look Good To Me
TTITLE5=Big Mama
TTITLE6=Sneaky
TTITLE7=Gimme Some
TTITLE8=Older Days
TTITLE9=Thump
TTITLE10=The Shorty Shuffle
TTITLE11=Soul Bop
EXTD=YEAR: 2000
EXTT0=
EXTT1=
EXTT2=
EXTT3=
EXTT4=
EXTT5=
EXTT6=
EXTT7=
EXTT8=
EXTT9=
EXTT10=
EXTT11=
PLAYORDER=
